<svg width="30" height="30" viewBox="0 0 30 30" fill="none" xmlns="http://www.w3.org/2000/svg">
<path d="M2 10.2002V5C2 4.20435 2.3163 3.44152 2.87891 2.87891C3.44152 2.3163 4.20435 2 5 2H10.2002C10.7524 2.00011 11.2002 2.44778 11.2002 3C11.2002 3.55222 10.7524 3.99989 10.2002 4H5C4.73478 4 4.4805 4.10543 4.29297 4.29297C4.10543 4.4805 4 4.73478 4 5V10.2002C3.99989 10.7524 3.55222 11.2002 3 11.2002C2.44778 11.2002 2.00011 10.7524 2 10.2002Z" fill="black"/>
<path d="M22.116 12.5C21.9556 12.5 21.8153 12.4459 21.6949 12.3376C21.5746 12.2293 21.4984 12.0889 21.4664 11.9165C21.3661 11.2468 21.2598 10.6693 21.1475 10.1841C21.0393 9.69883 20.9089 9.28778 20.7565 8.95091C20.6042 8.61405 20.4157 8.33333 20.1911 8.10876C19.9665 7.88017 19.6878 7.6937 19.355 7.54933C19.0221 7.40496 18.6191 7.28264 18.1459 7.18239C17.6767 7.08213 17.1172 6.98789 16.4676 6.89966C16.2911 6.8756 16.1467 6.80342 16.0345 6.68311C15.9222 6.55879 15.866 6.41442 15.866 6.25C15.866 6.08157 15.9222 5.9372 16.0345 5.81689C16.1508 5.69257 16.2971 5.61838 16.4736 5.59432C17.2516 5.5061 17.9052 5.40383 18.4346 5.28754C18.968 5.16723 19.4071 5.00481 19.752 4.80029C20.0969 4.59175 20.3756 4.31104 20.5881 3.95813C20.8007 3.60523 20.9731 3.15608 21.1054 2.61068C21.2378 2.06128 21.3581 1.38555 21.4664 0.583494C21.4944 0.411052 21.5686 0.270693 21.6889 0.162416C21.8092 0.0541386 21.9516 0 22.116 0C22.2804 0 22.4208 0.0541386 22.5371 0.162416C22.6574 0.266683 22.7316 0.405037 22.7597 0.577478C22.884 1.37953 23.0143 2.05326 23.1507 2.59865C23.287 3.14405 23.4595 3.59119 23.668 3.94009C23.8805 4.28898 24.1573 4.56769 24.4981 4.77623C24.843 4.98075 25.2801 5.14517 25.8095 5.26949C26.3388 5.3898 26.9905 5.49807 27.7645 5.59432C27.9369 5.61838 28.0793 5.69257 28.1916 5.81689C28.3079 5.9372 28.366 6.08157 28.366 6.25C28.366 6.41442 28.3079 6.55879 28.1916 6.68311C28.0753 6.80743 27.9329 6.87961 27.7645 6.89966C26.9865 6.98789 26.3308 7.09216 25.7974 7.21246C25.2641 7.32876 24.825 7.49118 24.4801 7.69971C24.1352 7.90824 23.8565 8.18896 23.6439 8.54187C23.4314 8.89076 23.259 9.33991 23.1266 9.88932C22.9943 10.4347 22.872 11.1084 22.7597 11.9105C22.7356 12.0829 22.6634 12.2233 22.5431 12.3316C22.4228 12.4439 22.2804 12.5 22.116 12.5Z" fill="black"/>
<path d="M24.3201 16.1839H26.1769V26.312H29.2322V28H24.3201V16.1839Z" fill="black"/>
<path d="M15.2371 16.1839H17.8873L19.0689 24.6408H19.1027L20.2843 16.1839H22.9345V28H21.1789V19.0535H21.1452L19.7947 28H18.2418L16.8914 19.0535H16.8576V28H15.2371V16.1839Z" fill="black"/>
<path d="M10.5401 17.8719H8.59883V16.1839H14.3381V17.8719H12.3969V28H10.5401V17.8719Z" fill="black"/>
<path d="M2 16.1839H3.85682V20.9947H5.84868V16.1839H7.7055V28H5.84868V22.6827H3.85682V28H2V16.1839Z" fill="black"/>
</svg>
