<svg width="30" height="30" viewBox="0 0 30 30" fill="none" xmlns="http://www.w3.org/2000/svg">
<path d="M2 25V5C2 4.20435 2.3163 3.44152 2.87891 2.87891C3.44152 2.3163 4.20435 2 5 2H14C14.5523 2 15 2.44772 15 3C15 3.55228 14.5523 4 14 4H5C4.73478 4 4.4805 4.10543 4.29297 4.29297C4.10543 4.4805 4 4.73478 4 5V25C4 25.2652 4.10543 25.5195 4.29297 25.707C4.48051 25.8946 4.73478 26 5 26H25C25.2652 26 25.5195 25.8946 25.707 25.707C25.8946 25.5195 26 25.2652 26 25V15.5C26 14.9477 26.4477 14.5 27 14.5C27.5523 14.5 28 14.9477 28 15.5V25C28 25.7957 27.6837 26.5585 27.1211 27.1211C26.5585 27.6837 25.7957 28 25 28H5C4.20435 28 3.44152 27.6837 2.87891 27.1211C2.3163 26.5585 2 25.7957 2 25Z" fill="black"/>
<path d="M19 15.5C19 15.8401 18.827 16.1568 18.541 16.3408L11.541 20.8408C11.2333 21.0386 10.8416 21.0532 10.5205 20.8779C10.1995 20.7026 10 20.3658 10 20L10 11C10 10.6342 10.1995 10.2974 10.5205 10.1221C10.8416 9.94678 11.2333 9.96137 11.541 10.1592L18.541 14.6592L18.6426 14.7334C18.8676 14.922 19 15.2022 19 15.5ZM12 12.8311V18.1689L16.1514 15.5L12 12.8311Z" fill="black"/>
<path d="M23.25 13.75C23.0896 13.75 22.9492 13.6959 22.8289 13.5876C22.7086 13.4793 22.6324 13.3389 22.6003 13.1665C22.5001 12.4968 22.3938 11.9193 22.2815 11.4341C22.1732 10.9488 22.0429 10.5378 21.8905 10.2009C21.7381 9.86405 21.5496 9.58333 21.3251 9.35876C21.1005 9.13017 20.8218 8.9437 20.4889 8.79933C20.1561 8.65496 19.753 8.53264 19.2798 8.43239C18.8106 8.33213 18.2512 8.23789 17.6015 8.14966C17.4251 8.1256 17.2807 8.05342 17.1684 7.93311C17.0561 7.80879 17 7.66442 17 7.5C17 7.33157 17.0561 7.1872 17.1684 7.06689C17.2847 6.94257 17.4311 6.86838 17.6076 6.84432C18.3855 6.7561 19.0392 6.65383 19.5686 6.53754C20.1019 6.41723 20.5411 6.25481 20.8859 6.05029C21.2308 5.84175 21.5095 5.56104 21.7221 5.20813C21.9346 4.85523 22.1071 4.40608 22.2394 3.86068C22.3718 3.31128 22.4921 2.63555 22.6003 1.83349C22.6284 1.66105 22.7026 1.52069 22.8229 1.41242C22.9432 1.30414 23.0856 1.25 23.25 1.25C23.4144 1.25 23.5548 1.30414 23.6711 1.41242C23.7914 1.51668 23.8656 1.65504 23.8936 1.82748C24.018 2.62953 24.1483 3.30326 24.2846 3.84865C24.421 4.39405 24.5934 4.84119 24.802 5.19009C25.0145 5.53898 25.2912 5.81769 25.6321 6.02623C25.977 6.23075 26.4141 6.39517 26.9435 6.51949C27.4728 6.6398 28.1245 6.74807 28.8985 6.84432C29.0709 6.86838 29.2133 6.94257 29.3256 7.06689C29.4418 7.1872 29.5 7.33157 29.5 7.5C29.5 7.66442 29.4418 7.80879 29.3256 7.93311C29.2093 8.05743 29.0669 8.12961 28.8985 8.14966C28.1205 8.23789 27.4648 8.34216 26.9314 8.46246C26.3981 8.57876 25.9589 8.74118 25.6141 8.94971C25.2692 9.15824 24.9905 9.43896 24.7779 9.79187C24.5654 10.1408 24.3929 10.5899 24.2606 11.1393C24.1282 11.6847 24.0059 12.3584 23.8936 13.1605C23.8696 13.3329 23.7974 13.4733 23.6771 13.5816C23.5568 13.6939 23.4144 13.75 23.25 13.75Z" fill="black"/>
</svg>
