<svg width="30" height="30" viewBox="0 0 30 30" fill="none" xmlns="http://www.w3.org/2000/svg">
<path d="M23.25 12.5C23.0896 12.5 22.9492 12.4459 22.8289 12.3376C22.7086 12.2293 22.6324 12.0889 22.6003 11.9165C22.5001 11.2468 22.3938 10.6693 22.2815 10.1841C22.1732 9.69883 22.0429 9.28778 21.8905 8.95091C21.7381 8.61405 21.5496 8.33333 21.3251 8.10876C21.1005 7.88017 20.8218 7.6937 20.4889 7.54933C20.1561 7.40496 19.753 7.28264 19.2798 7.18239C18.8106 7.08213 18.2512 6.98789 17.6015 6.89966C17.4251 6.8756 17.2807 6.80342 17.1684 6.68311C17.0561 6.55879 17 6.41442 17 6.25C17 6.08157 17.0561 5.9372 17.1684 5.81689C17.2847 5.69257 17.4311 5.61838 17.6076 5.59432C18.3855 5.5061 19.0392 5.40383 19.5686 5.28754C20.1019 5.16723 20.5411 5.00481 20.8859 4.80029C21.2308 4.59176 21.5095 4.31104 21.7221 3.95813C21.9346 3.60523 22.1071 3.15608 22.2394 2.61068C22.3717 2.06128 22.4921 1.38555 22.6003 0.583494C22.6284 0.411052 22.7026 0.270693 22.8229 0.162416C22.9432 0.0541388 23.0856 0 23.25 0C23.4144 0 23.5548 0.0541388 23.6711 0.162416C23.7914 0.266683 23.8656 0.405037 23.8936 0.577478C24.018 1.37953 24.1483 2.05326 24.2846 2.59865C24.421 3.14405 24.5934 3.59119 24.802 3.94009C25.0145 4.28898 25.2912 4.56769 25.6321 4.77623C25.977 4.98075 26.4141 5.14517 26.9434 5.26949C27.4728 5.3898 28.1245 5.49807 28.8985 5.59432C29.0709 5.61838 29.2133 5.69257 29.3255 5.81689C29.4418 5.9372 29.5 6.08157 29.5 6.25C29.5 6.41442 29.4418 6.55879 29.3255 6.68311C29.2093 6.80743 29.0669 6.87961 28.8985 6.89966C28.1205 6.98789 27.4648 7.09216 26.9314 7.21246C26.3981 7.32876 25.9589 7.49118 25.614 7.69971C25.2692 7.90824 24.9905 8.18896 24.7779 8.54187C24.5654 8.89076 24.3929 9.33991 24.2606 9.88932C24.1282 10.4347 24.0059 11.1084 23.8936 11.9105C23.8696 12.0829 23.7974 12.2233 23.6771 12.3316C23.5568 12.4439 23.4144 12.5 23.25 12.5Z" fill="black"/>
<path d="M23 27C23 26.4477 23.4477 26 24 26H25C25.2652 26 25.5195 25.8946 25.707 25.707C25.8946 25.5195 26 25.2652 26 25V15.5C26 14.9477 26.4477 14.5 27 14.5C27.5523 14.5 28 14.9477 28 15.5V25C28 25.7957 27.6837 26.5585 27.1211 27.1211C26.5585 27.6837 25.7956 28 25 28H24C23.4477 28 23 27.5523 23 27Z" fill="black"/>
<path d="M3 9C2.44771 9 2 8.55228 2 8V5C2 4.20435 2.31629 3.44152 2.8789 2.87891C3.44151 2.3163 4.20435 2 5 2H14C14.5523 2 15 2.44772 15 3C15 3.55228 14.5523 4 14 4H5C4.73478 4 4.4805 4.10543 4.29297 4.29297C4.10543 4.4805 4 4.73478 4 5V8C4 8.55228 3.55228 9 3 9Z" fill="black"/>
<path d="M6.59668 11.084C7.10267 10.8627 7.69273 11.0936 7.91406 11.5996C8.13508 12.1055 7.90422 12.6947 7.39843 12.916C6.3015 13.3958 5.33796 14.1377 4.59277 15.0771C3.8476 16.0166 3.34334 17.1253 3.12402 18.3057C2.90472 19.4861 2.97697 20.7029 3.33496 21.8486C3.69291 22.9942 4.32546 24.0342 5.17675 24.8779C6.02808 25.7216 7.07281 26.343 8.21875 26.6885C9.36476 27.0339 10.5781 27.0933 11.752 26.8604C12.9259 26.6273 14.0256 26.109 14.9541 25.3516C15.8826 24.5941 16.6126 23.6203 17.0791 22.5146C17.2938 22.0058 17.8798 21.7668 18.3887 21.9814C18.8975 22.1961 19.1356 22.7831 18.9209 23.292C18.3277 24.6979 17.4003 25.9374 16.2187 26.9014C15.0369 27.8655 13.6367 28.5254 12.1416 28.8223C10.6465 29.119 9.10113 29.0434 7.6416 28.6035C6.18228 28.1636 4.85289 27.3724 3.76953 26.2988C2.6861 25.2252 1.881 23.9021 1.42578 22.4453C0.970572 20.9884 0.878397 19.4413 1.15722 17.9404C1.43606 16.4396 2.07827 15.0303 3.02636 13.835C3.97443 12.6397 5.19996 11.695 6.59668 11.084ZM10 12.6709C10.0002 11.7614 10.7588 10.9035 11.8018 11.0078C13.6455 11.1926 15.3683 12.0101 16.6787 13.3203C17.9891 14.6306 18.807 16.3534 18.9922 18.1973C19.0962 19.2387 18.2392 19.9989 17.3291 19.999L11.7031 20C11.2514 20 10.8184 19.8204 10.499 19.501C10.1797 19.1816 10 18.7485 10 18.2969V12.6709ZM12 17.999H16.9463C16.7387 16.7657 16.1537 15.6233 15.2646 14.7344C14.3755 13.8454 13.2333 13.26 12 13.0527V17.999Z" fill="black"/>
</svg>
